# xmcd
#
# Track frame offsets:
# 150
# 10848
# 25059
# 37021
# 53988
# 72850
# 85769
# 94960
# 113231
# 130162
# 143838
# 158959
# 172548
# 190226
# 197220
# 211280
#
# Disc length: 3005 seconds
#
#
# Revision: 0
# Processed by: cddbd v1.4PL0 Copyright (c) Steve Scherf et al.
# Submitted via: FreeRIP 2.00 
#
DISCID=d70bbb10
DTITLE=Micky Moody and Paul Williams - Smokestacks, Broom Dusters and Hootchie Coochie Men
DYEAR=2002
DGENRE=Blues
TTITLE0=Look On Yonder's Wall
TTITLE1=Down In The Bottom
TTITLE2=Who's Been Talkin'
TTITLE3=I'm Ready
TTITLE4=Honey Bee
TTITLE5=Dust My Broom
TTITLE6=Down On Maxwell Street
TTITLE7=Built For Comfort
TTITLE8=It Hurts Me Too
TTITLE9=Baby Please Don't Go
TTITLE10=Little Red Rooster
TTITLE11=Shake Your Moneymaker
TTITLE12=I Can't Be Satisfied
TTITLE13=Mississippi Lightning
TTITLE14=Done Somebody Wrong
TTITLE15=Shake For Me
EXTD=
EXTT0=
EXTT1=
EXTT2=
EXTT3=
EXTT4=
EXTT5=
EXTT6=
EXTT7=
EXTT8=
EXTT9=
EXTT10=
EXTT11=
EXTT12=
EXTT13=
EXTT14=
EXTT15=
PLAYORDER=
